<?xml version="1.0" encoding="UTF-8" standalone="no"?>
<!-- Created with Inkscape (http://www.inkscape.org/) -->
<svg
   xmlns:svg="http://www.w3.org/2000/svg"
   xmlns="http://www.w3.org/2000/svg"
   version="1.0"
   width="1237.45"
   height="941.20001"
   id="svg2403"
   xml:space="preserve"><defs
     id="defs2406"><clipPath
       id="clipPath2418"><path
         d="M 7005.882,8057.112 C 6997.433,8057.108 6990.596,8050.271 6990.592,8041.821 L 6990.592,8041.821 L 6990.592,7982.535 C 6990.596,7974.085 6997.433,7967.248 7005.882,7967.244 L 7005.882,7967.244 L 7065.172,7967.244 C 7073.618,7967.248 7080.456,7974.085 7080.459,7982.535 L 7080.459,7982.535 L 7080.459,8041.821 C 7080.456,8050.271 7073.618,8057.108 7065.172,8057.112 L 7065.172,8057.112 L 7005.882,8057.112 z M 7004.491,7982.535 L 7004.491,8041.821 C 7004.495,8042.587 7005.116,8043.209 7005.882,8043.213 L 7005.882,8043.213 L 7065.172,8043.213 C 7065.935,8043.209 7066.56,8042.587 7066.56,8041.821 L 7066.56,8041.821 L 7066.56,7982.535 C 7066.56,7981.769 7065.935,7981.147 7065.172,7981.147 L 7065.172,7981.147 L 7005.882,7981.147 C 7005.116,7981.147 7004.495,7981.769 7004.491,7982.535"
         id="path2420" /></clipPath><linearGradient
       x1="0"
       y1="0"
       x2="1"
       y2="0"
       id="linearGradient2426"
       gradientUnits="userSpaceOnUse"
       gradientTransform="matrix(0,89.868652,89.868652,0,7035.5264,7967.2437)"
       spreadMethod="pad"><stop
         id="stop2428"
         style="stop-color:#fbb03b;stop-opacity:1"
         offset="0" /><stop
         id="stop2430"
         style="stop-color:#fb780f;stop-opacity:1"
         offset="1" /></linearGradient><clipPath
       id="clipPath2438"><path
         d="M 0,14400 L 14400,14400 L 14400,0 L 0,0 L 0,14400 z"
         id="path2440" /></clipPath><clipPath
       id="clipPath2454"><path
         d="M 7154.093,8088.029 C 7153.999,8084.104 7156.988,8080.928 7161.477,8080.928 L 7161.477,8080.928 C 7166.149,8080.928 7169.138,8084.104 7169.138,8088.029 L 7169.138,8088.029 C 7169.044,8092.142 7166.149,8095.224 7161.57,8095.224 L 7161.57,8095.224 C 7156.988,8095.224 7153.999,8092.142 7154.093,8088.029"
         id="path2456" /></clipPath><linearGradient
       x1="0"
       y1="0"
       x2="1"
       y2="0"
       id="linearGradient2462"
       gradientUnits="userSpaceOnUse"
       gradientTransform="matrix(0,14.299316,14.299316,0,7161.6147,8080.9268)"
       spreadMethod="pad"><stop
         id="stop2464"
         style="stop-color:#fbb03b;stop-opacity:1"
         offset="0" /><stop
         id="stop2466"
         style="stop-color:#fb780f;stop-opacity:1"
         offset="1" /></linearGradient><clipPath
       id="clipPath2474"><path
         d="M 0,14400 L 14400,14400 L 14400,0 L 0,0 L 0,14400 z"
         id="path2476" /></clipPath><clipPath
       id="clipPath2492"><path
         d="M 7308.202,8074.104 C 7306.051,8072.796 7303.995,8071.018 7302.314,8068.59 L 7302.314,8068.59 L 7302.127,8068.59 C 7300.165,8073.356 7295.492,8076.345 7289.604,8076.345 L 7289.604,8076.345 C 7281.751,8076.345 7277.733,8072.048 7275.771,8069.15 L 7275.771,8069.15 L 7275.488,8069.15 L 7274.834,8075.319 L 7262.872,8075.319 C 7263.06,8071.3 7263.248,8066.439 7263.248,8060.74 L 7263.248,8060.74 L 7263.248,8029.617 L 7277.079,8029.617 L 7277.079,8056.251 C 7277.079,8057.375 7277.172,8058.684 7277.639,8059.804 L 7277.639,8059.804 C 7278.481,8062.143 7280.631,8064.947 7284.274,8064.947 L 7284.274,8064.947 C 7288.762,8064.947 7290.819,8061.019 7290.819,8055.226 L 7290.819,8055.226 L 7290.819,8029.617 L 7304.649,8029.617 L 7304.649,8056.346 C 7304.649,8057.47 7304.837,8058.962 7305.209,8059.992 L 7305.209,8059.992 C 7306.146,8062.703 7308.483,8064.947 7311.754,8064.947 L 7311.754,8064.947 C 7316.333,8064.947 7318.483,8061.112 7318.483,8054.477 L 7318.483,8054.477 L 7318.483,8029.617 L 7332.314,8029.617 L 7332.314,8056.534 C 7332.314,8070.18 7325.679,8076.345 7316.893,8076.345 L 7316.893,8076.345 C 7313.529,8076.345 7310.724,8075.601 7308.202,8074.104"
         id="path2494" /></clipPath><linearGradient
       x1="0"
       y1="0"
       x2="1"
       y2="0"
       id="linearGradient2500"
       gradientUnits="userSpaceOnUse"
       gradientTransform="matrix(0,46.730469,46.730469,0,7297.5937,8029.6167)"
       spreadMethod="pad"><stop
         id="stop2502"
         style="stop-color:#fbb03b;stop-opacity:1"
         offset="0" /><stop
         id="stop2504"
         style="stop-color:#fb780f;stop-opacity:1"
         offset="1" /></linearGradient><clipPath
       id="clipPath2512"><path
         d="M 7341.002,8051.955 C 7341.002,8037.654 7349.881,8028.591 7365.396,8028.591 L 7365.396,8028.591 C 7371.561,8028.591 7377.264,8029.617 7381.937,8031.485 L 7381.937,8031.485 L 7380.068,8041.113 C 7376.237,8039.899 7372.309,8039.245 7367.452,8039.245 L 7367.452,8039.245 C 7360.813,8039.245 7355.02,8042.049 7354.554,8047.936 L 7354.554,8047.936 L 7383.993,8047.936 C 7384.181,8048.962 7384.459,8051.113 7384.459,8053.541 L 7384.459,8053.541 C 7384.459,8064.853 7378.854,8076.345 7364.087,8076.345 L 7364.087,8076.345 C 7348.197,8076.345 7341.002,8063.541 7341.002,8051.955 M 7363.246,8066.909 C 7369.787,8066.909 7371.283,8061.112 7371.283,8057.654 L 7371.283,8057.654 L 7354.46,8057.654 C 7354.832,8061.488 7357.264,8066.909 7363.246,8066.909"
         id="path2514" /></clipPath><linearGradient
       x1="0"
       y1="0"
       x2="1"
       y2="0"
       id="linearGradient2520"
       gradientUnits="userSpaceOnUse"
       gradientTransform="matrix(0,47.757812,47.757812,0,7362.7314,8028.5894)"
       spreadMethod="pad"><stop
         id="stop2522"
         style="stop-color:#fbb03b;stop-opacity:1"
         offset="0" /><stop
         id="stop2524"
         style="stop-color:#fb780f;stop-opacity:1"
         offset="1" /></linearGradient><clipPath
       id="clipPath2532"><path
         d="M 7391.47,8061.3 C 7391.376,8055.974 7395.019,8050.831 7404.458,8047.654 L 7404.458,8047.654 C 7409.786,8045.88 7411.188,8044.756 7411.188,8042.421 L 7411.188,8042.421 C 7411.188,8040.083 7409.414,8038.59 7405.113,8038.59 L 7405.113,8038.59 C 7400.906,8038.59 7395.485,8040.459 7392.869,8042.049 L 7392.869,8042.049 L 7390.346,8031.861 C 7393.805,8029.993 7399.132,8028.591 7405.113,8028.591 L 7405.113,8028.591 C 7418.199,8028.591 7424.924,8034.944 7424.924,8043.448 L 7424.924,8043.448 C 7424.834,8050.177 7421.188,8054.571 7412.496,8057.56 L 7412.496,8057.56 C 7406.887,8059.526 7405.113,8060.646 7405.113,8062.796 L 7405.113,8062.796 C 7405.113,8065.131 7407.075,8066.533 7410.534,8066.533 L 7410.534,8066.533 C 7414.458,8066.533 7418.383,8065.037 7420.439,8063.917 L 7420.439,8063.917 L 7422.965,8073.729 C 7420.161,8075.131 7415.395,8076.345 7410.067,8076.345 L 7410.067,8076.345 C 7398.756,8076.345 7391.47,8069.898 7391.47,8061.3"
         id="path2534" /></clipPath><linearGradient
       x1="0"
       y1="0"
       x2="1"
       y2="0"
       id="linearGradient2540"
       gradientUnits="userSpaceOnUse"
       gradientTransform="matrix(0,47.757812,47.757812,0,7407.6357,8028.5894)"
       spreadMethod="pad"><stop
         id="stop2542"
         style="stop-color:#fbb03b;stop-opacity:1"
         offset="0" /><stop
         id="stop2544"
         style="stop-color:#fb780f;stop-opacity:1"
         offset="1" /></linearGradient><clipPath
       id="clipPath2552"><path
         d="M 7433.522,8095.972 L 7433.522,8029.617 L 7447.728,8029.617 L 7447.728,8056.722 C 7447.728,8057.748 7447.818,8058.962 7448.194,8059.898 L 7448.194,8059.898 C 7449.221,8062.421 7451.559,8064.853 7455.299,8064.853 L 7455.299,8064.853 C 7460.626,8064.853 7462.683,8060.74 7462.683,8054.759 L 7462.683,8054.759 L 7462.683,8029.617 L 7476.885,8029.617 L 7476.885,8056.346 C 7476.885,8070.086 7469.972,8076.345 7460.904,8076.345 L 7460.904,8076.345 C 7458.288,8076.345 7455.671,8075.691 7453.521,8074.571 L 7453.521,8074.571 C 7451.281,8073.45 7449.409,8071.86 7447.913,8069.898 L 7447.913,8069.898 L 7447.728,8069.898 L 7447.728,8095.972 L 7433.522,8095.972 z"
         id="path2554" /></clipPath><linearGradient
       x1="0"
       y1="0"
       x2="1"
       y2="0"
       id="linearGradient2560"
       gradientUnits="userSpaceOnUse"
       gradientTransform="matrix(0,66.356934,66.356934,0,7455.2041,8029.6167)"
       spreadMethod="pad"><stop
         id="stop2562"
         style="stop-color:#fbb03b;stop-opacity:1"
         offset="0" /><stop
         id="stop2564"
         style="stop-color:#fb780f;stop-opacity:1"
         offset="1" /></linearGradient><clipPath
       id="clipPath2572"><path
         d="M 0,14400 L 14400,14400 L 14400,0 L 0,0 L 0,14400 z"
         id="path2574" /></clipPath></defs><g
     transform="matrix(1.25,0,0,-1.25,-8394.5125,10512.937)"
     id="g2412"><g
       id="g2414"><g
         clip-path="url(#clipPath2418)"
         id="g2416"><g
           id="g2422"><g
             id="g2424"><path
               d="M 7005.882,8057.112 C 6997.433,8057.108 6990.596,8050.271 6990.592,8041.821 L 6990.592,8041.821 L 6990.592,7982.535 C 6990.596,7974.085 6997.433,7967.248 7005.882,7967.244 L 7005.882,7967.244 L 7065.172,7967.244 C 7073.618,7967.248 7080.456,7974.085 7080.459,7982.535 L 7080.459,7982.535 L 7080.459,8041.821 C 7080.456,8050.271 7073.618,8057.108 7065.172,8057.112 L 7065.172,8057.112 L 7005.882,8057.112 z M 7004.491,7982.535 L 7004.491,8041.821 C 7004.495,8042.587 7005.116,8043.209 7005.882,8043.213 L 7005.882,8043.213 L 7065.172,8043.213 C 7065.935,8043.209 7066.56,8042.587 7066.56,8041.821 L 7066.56,8041.821 L 7066.56,7982.535 C 7066.56,7981.769 7065.935,7981.147 7065.172,7981.147 L 7065.172,7981.147 L 7005.882,7981.147 C 7005.116,7981.147 7004.495,7981.769 7004.491,7982.535"
               id="path2432"
               style="fill:url(#linearGradient2426);stroke:none" /></g></g></g></g><g
       id="g2434"><g
         clip-path="url(#clipPath2438)"
         id="g2436"><g
           transform="translate(7028.6821,8094.9351)"
           id="g2442"><path
             d="M 0,0 L -59.288,0 C -67.735,-0.004 -74.573,-6.843 -74.579,-15.291 L -74.579,-74.579 C -74.573,-83.026 -67.735,-89.864 -59.288,-89.87 L -45.041,-89.87 L -45.041,-75.967 L -59.288,-75.967 C -60.052,-75.965 -60.677,-75.344 -60.678,-74.579 L -60.678,-15.291 C -60.677,-14.525 -60.053,-13.901 -59.288,-13.9 L 0,-13.9 C 0.764,-13.901 1.388,-14.525 1.389,-15.291 L 1.389,-29.538 L 15.291,-29.538 L 15.291,-15.291 C 15.285,-6.843 8.447,-0.004 0,0"
             id="path2444"
             style="fill:#666666;fill-opacity:1;fill-rule:nonzero;stroke:none" /></g><g
           transform="translate(7113.8135,8042.0479)"
           id="g2446"><path
             d="M 0,0 C 2.617,-1.589 8.038,-3.458 12.244,-3.458 C 16.542,-3.458 18.318,-1.963 18.318,0.373 C 18.318,2.71 16.917,3.832 11.589,5.607 C 2.15,8.785 -1.495,13.925 -1.402,19.252 C -1.402,27.851 5.888,34.299 17.197,34.299 C 22.524,34.299 27.291,33.084 30.094,31.683 L 27.571,21.869 C 25.515,22.991 21.589,24.486 17.664,24.486 C 14.206,24.486 12.244,23.084 12.244,20.748 C 12.244,18.598 14.019,17.477 19.627,15.514 C 28.318,12.523 31.963,8.13 32.057,1.401 C 32.057,-7.103 25.328,-13.458 12.244,-13.458 C 6.262,-13.458 0.935,-12.056 -2.523,-10.187 L 0,0 z"
             id="path2448"
             style="fill:#666666;fill-opacity:1;fill-rule:nonzero;stroke:none" /></g></g></g><g
       id="g2450"><g
         clip-path="url(#clipPath2454)"
         id="g2452"><g
           id="g2458"><g
             id="g2460"><path
               d="M 7154.093,8088.029 C 7153.999,8084.104 7156.988,8080.928 7161.477,8080.928 L 7161.477,8080.928 C 7166.149,8080.928 7169.138,8084.104 7169.138,8088.029 L 7169.138,8088.029 C 7169.044,8092.142 7166.149,8095.224 7161.57,8095.224 L 7161.57,8095.224 C 7156.988,8095.224 7153.999,8092.142 7154.093,8088.029"
               id="path2468"
               style="fill:url(#linearGradient2462);stroke:none" /></g></g></g></g><g
       id="g2470"><g
         clip-path="url(#clipPath2474)"
         id="g2472"><path
           d="M 7154.466,8075.319 L 7168.672,8075.319 L 7168.672,8029.616 L 7154.466,8029.616 L 7154.466,8075.319 z"
           id="path2478"
           style="fill:#666666;fill-opacity:1;fill-rule:nonzero;stroke:none" /><g
           transform="translate(7195.96,8087.7495)"
           id="g2480"><path
             d="M 0,0 L 0,-12.43 L 10.187,-12.43 L 10.187,-22.898 L 0,-22.898 L 0,-39.44 C 0,-44.955 1.309,-47.478 5.607,-47.478 C 7.57,-47.478 8.411,-47.384 9.813,-47.104 L 9.907,-57.852 C 8.038,-58.6 4.673,-59.16 0.654,-59.16 C -3.925,-59.16 -7.757,-57.479 -10,-55.143 C -12.617,-52.432 -13.926,-48.039 -13.926,-41.59 L -13.926,-22.898 L -20,-22.898 L -20,-12.43 L -13.926,-12.43 L -13.926,-3.832 L 0,0 z"
             id="path2482"
             style="fill:#666666;fill-opacity:1;fill-rule:nonzero;stroke:none" /></g><g
           transform="translate(7241.5664,8057.6553)"
           id="g2484"><path
             d="M 0,0 C 0,3.458 -1.494,9.252 -8.037,9.252 C -14.019,9.252 -16.448,3.832 -16.822,0 L 0,0 z M -16.729,-9.72 C -16.262,-15.607 -10.467,-18.412 -3.832,-18.412 C 1.029,-18.412 4.955,-17.758 8.785,-16.543 L 10.654,-26.169 C 5.982,-28.039 0.281,-29.066 -5.889,-29.066 C -21.402,-29.066 -30.281,-20.001 -30.281,-5.701 C -30.281,5.888 -23.084,18.692 -7.195,18.692 C 7.57,18.692 13.178,7.196 13.178,-4.112 C 13.178,-6.542 12.898,-8.692 12.711,-9.72 L -16.729,-9.72 z"
             id="path2486"
             style="fill:#666666;fill-opacity:1;fill-rule:nonzero;stroke:none" /></g></g></g><g
       id="g2488"><g
         clip-path="url(#clipPath2492)"
         id="g2490"><g
           id="g2496"><g
             id="g2498"><path
               d="M 7308.202,8074.104 C 7306.051,8072.796 7303.995,8071.018 7302.314,8068.59 L 7302.314,8068.59 L 7302.127,8068.59 C 7300.165,8073.356 7295.492,8076.345 7289.604,8076.345 L 7289.604,8076.345 C 7281.751,8076.345 7277.733,8072.048 7275.771,8069.15 L 7275.771,8069.15 L 7275.488,8069.15 L 7274.834,8075.319 L 7262.872,8075.319 C 7263.06,8071.3 7263.248,8066.439 7263.248,8060.74 L 7263.248,8060.74 L 7263.248,8029.617 L 7277.079,8029.617 L 7277.079,8056.251 C 7277.079,8057.375 7277.172,8058.684 7277.639,8059.804 L 7277.639,8059.804 C 7278.481,8062.143 7280.631,8064.947 7284.274,8064.947 L 7284.274,8064.947 C 7288.762,8064.947 7290.819,8061.019 7290.819,8055.226 L 7290.819,8055.226 L 7290.819,8029.617 L 7304.649,8029.617 L 7304.649,8056.346 C 7304.649,8057.47 7304.837,8058.962 7305.209,8059.992 L 7305.209,8059.992 C 7306.146,8062.703 7308.483,8064.947 7311.754,8064.947 L 7311.754,8064.947 C 7316.333,8064.947 7318.483,8061.112 7318.483,8054.477 L 7318.483,8054.477 L 7318.483,8029.617 L 7332.314,8029.617 L 7332.314,8056.534 C 7332.314,8070.18 7325.679,8076.345 7316.893,8076.345 L 7316.893,8076.345 C 7313.529,8076.345 7310.724,8075.601 7308.202,8074.104"
               id="path2506"
               style="fill:url(#linearGradient2500);stroke:none" /></g></g></g></g><g
       id="g2508"><g
         clip-path="url(#clipPath2512)"
         id="g2510"><g
           id="g2516"><g
             id="g2518"><path
               d="M 7341.002,8051.955 C 7341.002,8037.654 7349.881,8028.591 7365.396,8028.591 L 7365.396,8028.591 C 7371.561,8028.591 7377.264,8029.617 7381.937,8031.485 L 7381.937,8031.485 L 7380.068,8041.113 C 7376.237,8039.899 7372.309,8039.245 7367.452,8039.245 L 7367.452,8039.245 C 7360.813,8039.245 7355.02,8042.049 7354.554,8047.936 L 7354.554,8047.936 L 7383.993,8047.936 C 7384.181,8048.962 7384.459,8051.113 7384.459,8053.541 L 7384.459,8053.541 C 7384.459,8064.853 7378.854,8076.345 7364.087,8076.345 L 7364.087,8076.345 C 7348.197,8076.345 7341.002,8063.541 7341.002,8051.955 M 7363.246,8066.909 C 7369.787,8066.909 7371.283,8061.112 7371.283,8057.654 L 7371.283,8057.654 L 7354.46,8057.654 C 7354.832,8061.488 7357.264,8066.909 7363.246,8066.909"
               id="path2526"
               style="fill:url(#linearGradient2520);stroke:none" /></g></g></g></g><g
       id="g2528"><g
         clip-path="url(#clipPath2532)"
         id="g2530"><g
           id="g2536"><g
             id="g2538"><path
               d="M 7391.47,8061.3 C 7391.376,8055.974 7395.019,8050.831 7404.458,8047.654 L 7404.458,8047.654 C 7409.786,8045.88 7411.188,8044.756 7411.188,8042.421 L 7411.188,8042.421 C 7411.188,8040.083 7409.414,8038.59 7405.113,8038.59 L 7405.113,8038.59 C 7400.906,8038.59 7395.485,8040.459 7392.869,8042.049 L 7392.869,8042.049 L 7390.346,8031.861 C 7393.805,8029.993 7399.132,8028.591 7405.113,8028.591 L 7405.113,8028.591 C 7418.199,8028.591 7424.924,8034.944 7424.924,8043.448 L 7424.924,8043.448 C 7424.834,8050.177 7421.188,8054.571 7412.496,8057.56 L 7412.496,8057.56 C 7406.887,8059.526 7405.113,8060.646 7405.113,8062.796 L 7405.113,8062.796 C 7405.113,8065.131 7407.075,8066.533 7410.534,8066.533 L 7410.534,8066.533 C 7414.458,8066.533 7418.383,8065.037 7420.439,8063.917 L 7420.439,8063.917 L 7422.965,8073.729 C 7420.161,8075.131 7415.395,8076.345 7410.067,8076.345 L 7410.067,8076.345 C 7398.756,8076.345 7391.47,8069.898 7391.47,8061.3"
               id="path2546"
               style="fill:url(#linearGradient2540);stroke:none" /></g></g></g></g><g
       id="g2548"><g
         clip-path="url(#clipPath2552)"
         id="g2550"><g
           id="g2556"><g
             id="g2558"><path
               d="M 7433.522,8095.972 L 7433.522,8029.617 L 7447.728,8029.617 L 7447.728,8056.722 C 7447.728,8057.748 7447.818,8058.962 7448.194,8059.898 L 7448.194,8059.898 C 7449.221,8062.421 7451.559,8064.853 7455.299,8064.853 L 7455.299,8064.853 C 7460.626,8064.853 7462.683,8060.74 7462.683,8054.759 L 7462.683,8054.759 L 7462.683,8029.617 L 7476.885,8029.617 L 7476.885,8056.346 C 7476.885,8070.086 7469.972,8076.345 7460.904,8076.345 L 7460.904,8076.345 C 7458.288,8076.345 7455.671,8075.691 7453.521,8074.571 L 7453.521,8074.571 C 7451.281,8073.45 7449.409,8071.86 7447.913,8069.898 L 7447.913,8069.898 L 7447.728,8069.898 L 7447.728,8095.972 L 7433.522,8095.972 z"
               id="path2566"
               style="fill:url(#linearGradient2560);stroke:none" /></g></g></g></g><g
       id="g2568"><g
         clip-path="url(#clipPath2572)"
         id="g2570"><g
           transform="translate(7120.7485,8001.1821)"
           id="g2576"><path
             d="M 0,0 C -3.671,0.076 -7.839,-0.574 -7.839,-4.168 C -7.839,-6.348 -6.386,-7.381 -4.666,-7.381 C -2.256,-7.381 -0.727,-5.851 -0.191,-4.283 C -0.077,-3.938 0,-3.557 0,-3.213 L 0,0 z M 3.25,-5.01 C 3.25,-6.615 3.327,-8.184 3.556,-9.445 L 0.497,-9.445 L 0.229,-7.112 L 0.114,-7.112 C -0.918,-8.565 -2.906,-9.866 -5.545,-9.866 C -9.292,-9.866 -11.204,-7.228 -11.204,-4.551 C -11.204,-0.077 -7.228,2.37 -0.077,2.332 L -0.077,2.715 C -0.077,4.244 -0.498,6.997 -4.283,6.997 C -6.004,6.997 -7.801,6.462 -9.101,5.621 L -9.866,7.839 C -8.336,8.833 -6.118,9.482 -3.786,9.482 C 1.874,9.482 3.25,5.621 3.25,1.911 L 3.25,-5.01 z"
             id="path2578"
             style="fill:#c1c1c1;fill-opacity:1;fill-rule:nonzero;stroke:none" /></g><g
           transform="translate(7149.2422,8014.6802)"
           id="g2580"><path
             d="M 0,0 L 0,-4.436 L 4.818,-4.436 L 4.818,-6.998 L 0,-6.998 L 0,-16.979 C 0,-19.272 0.65,-20.572 2.524,-20.572 C 3.441,-20.572 3.977,-20.496 4.474,-20.343 L 4.627,-22.867 C 3.977,-23.135 2.944,-23.364 1.644,-23.364 C 0.077,-23.364 -1.186,-22.829 -1.988,-21.911 C -2.944,-20.917 -3.289,-19.272 -3.289,-17.093 L -3.289,-6.998 L -6.156,-6.998 L -6.156,-4.436 L -3.289,-4.436 L -3.289,-1.032 L 0,0 z"
             id="path2582"
             style="fill:#c1c1c1;fill-opacity:1;fill-rule:nonzero;stroke:none" /></g><g
           transform="translate(7171.4233,8001.1821)"
           id="g2584"><path
             d="M 0,0 C -3.671,0.076 -7.839,-0.574 -7.839,-4.168 C -7.839,-6.348 -6.386,-7.381 -4.665,-7.381 C -2.256,-7.381 -0.726,-5.851 -0.191,-4.283 C -0.076,-3.938 0,-3.557 0,-3.213 L 0,0 z M 3.25,-5.01 C 3.25,-6.615 3.327,-8.184 3.557,-9.445 L 0.498,-9.445 L 0.229,-7.112 L 0.115,-7.112 C -0.917,-8.565 -2.906,-9.866 -5.544,-9.866 C -9.292,-9.866 -11.204,-7.228 -11.204,-4.551 C -11.204,-0.077 -7.227,2.37 -0.076,2.332 L -0.076,2.715 C -0.076,4.244 -0.497,6.997 -4.282,6.997 C -6.003,6.997 -7.8,6.462 -9.101,5.621 L -9.865,7.839 C -8.336,8.833 -6.118,9.482 -3.785,9.482 C 1.874,9.482 3.25,5.621 3.25,1.911 L 3.25,-5.01 z"
             id="path2586"
             style="fill:#c1c1c1;fill-opacity:1;fill-rule:nonzero;stroke:none" /></g><g
           transform="translate(7196.3975,8002.9409)"
           id="g2588"><path
             d="M 0,0 C 0,0.573 -0.039,1.07 -0.191,1.529 C -0.803,3.479 -2.447,5.086 -4.895,5.086 C -8.107,5.086 -10.401,2.37 -10.401,-1.912 C -10.401,-5.545 -8.565,-8.565 -4.933,-8.565 C -2.868,-8.565 -0.994,-7.266 -0.268,-5.124 C -0.077,-4.551 0,-3.9 0,-3.327 L 0,0 z M 3.327,-8.527 C 3.327,-12.771 2.485,-15.372 0.688,-16.979 C -1.109,-18.66 -3.709,-19.196 -6.042,-19.196 C -8.26,-19.196 -10.707,-18.66 -12.198,-17.666 L -11.357,-15.104 C -10.133,-15.869 -8.221,-16.558 -5.927,-16.558 C -2.486,-16.558 0.038,-14.761 0.038,-10.095 L 0.038,-8.03 L -0.039,-8.03 C -1.071,-9.751 -3.059,-11.128 -5.927,-11.128 C -10.516,-11.128 -13.804,-7.228 -13.804,-2.104 C -13.804,4.168 -9.713,7.724 -5.468,7.724 C -2.256,7.724 -0.497,6.041 0.306,4.512 L 0.382,4.512 L 0.535,7.304 L 3.479,7.304 C 3.403,5.965 3.327,4.474 3.327,2.218 L 3.327,-8.527 z"
             id="path2590"
             style="fill:#c1c1c1;fill-opacity:1;fill-rule:nonzero;stroke:none" /></g><path
           d="M 7209.136,8018.886 L 7212.5,8018.886 L 7212.5,7991.737 L 7209.136,7991.737 L 7209.136,8018.886 z"
           id="path2592"
           style="fill:#c1c1c1;fill-opacity:1;fill-rule:nonzero;stroke:none" /><path
           d="M 7221.986,8010.245 L 7225.35,8010.245 L 7225.35,7991.737 L 7221.986,7991.737 L 7221.986,8010.245 z M 7225.732,8015.445 C 7225.771,8014.297 7224.93,8013.379 7223.592,8013.379 C 7222.406,8013.379 7221.564,8014.297 7221.564,8015.445 C 7221.564,8016.63 7222.445,8017.547 7223.668,8017.547 C 7224.93,8017.547 7225.732,8016.63 7225.732,8015.445"
           id="path2594"
           style="fill:#c1c1c1;fill-opacity:1;fill-rule:nonzero;stroke:none" /><g
           transform="translate(7234.7598,8005.2349)"
           id="g2596"><path
             d="M 0,0 C 0,1.912 -0.039,3.479 -0.152,5.01 L 2.83,5.01 L 3.021,1.95 L 3.098,1.95 C 4.016,3.709 6.156,5.43 9.215,5.43 C 11.777,5.43 15.754,3.9 15.754,-2.447 L 15.754,-13.498 L 12.389,-13.498 L 12.389,-2.829 C 12.389,0.153 11.28,2.639 8.106,2.639 C 5.889,2.639 4.168,1.071 3.594,-0.803 C 3.441,-1.224 3.365,-1.797 3.365,-2.371 L 3.365,-13.498 L 0,-13.498 L 0,0 z"
             id="path2598"
             style="fill:#c1c1c1;fill-opacity:1;fill-rule:nonzero;stroke:none" /></g><g
           transform="translate(7271.5488,8002.7876)"
           id="g2600"><path
             d="M 0,0 C 0.039,2.142 -0.879,5.468 -4.664,5.468 C -8.067,5.468 -9.559,2.333 -9.826,0 L 0,0 z M -9.865,-2.409 C -9.788,-6.959 -6.883,-8.833 -3.518,-8.833 C -1.107,-8.833 0.346,-8.412 1.607,-7.877 L 2.18,-10.286 C 0.994,-10.821 -1.031,-11.472 -3.977,-11.472 C -9.674,-11.472 -13.076,-7.686 -13.076,-2.103 C -13.076,3.479 -9.788,7.877 -4.396,7.877 C 1.645,7.877 3.252,2.563 3.252,-0.841 C 3.252,-1.529 3.174,-2.064 3.137,-2.409 L -9.865,-2.409 z"
             id="path2602"
             style="fill:#c1c1c1;fill-opacity:1;fill-rule:nonzero;stroke:none" /></g><g
           transform="translate(7307.1934,8002.9409)"
           id="g2604"><path
             d="M 0,0 C 0,0.573 -0.037,1.07 -0.189,1.529 C -0.803,3.479 -2.447,5.086 -4.895,5.086 C -8.105,5.086 -10.4,2.37 -10.4,-1.912 C -10.4,-5.545 -8.564,-8.565 -4.932,-8.565 C -2.867,-8.565 -0.994,-7.266 -0.268,-5.124 C -0.076,-4.551 0,-3.9 0,-3.327 L 0,0 z M 3.328,-8.527 C 3.328,-12.771 2.486,-15.372 0.689,-16.979 C -1.107,-18.66 -3.709,-19.196 -6.041,-19.196 C -8.258,-19.196 -10.705,-18.66 -12.197,-17.666 L -11.355,-15.104 C -10.133,-15.869 -8.221,-16.558 -5.926,-16.558 C -2.484,-16.558 0.039,-14.761 0.039,-10.095 L 0.039,-8.03 L -0.037,-8.03 C -1.07,-9.751 -3.059,-11.128 -5.926,-11.128 C -10.516,-11.128 -13.803,-7.228 -13.803,-2.104 C -13.803,4.168 -9.711,7.724 -5.467,7.724 C -2.256,7.724 -0.496,6.041 0.307,4.512 L 0.383,4.512 L 0.537,7.304 L 3.48,7.304 C 3.404,5.965 3.328,4.474 3.328,2.218 L 3.328,-8.527 z"
             id="path2606"
             style="fill:#c1c1c1;fill-opacity:1;fill-rule:nonzero;stroke:none" /></g><g
           transform="translate(7321.998,8000.9526)"
           id="g2608"><path
             d="M 0,0 C 0,-4.054 2.332,-7.112 5.621,-7.112 C 8.832,-7.112 11.242,-4.092 11.242,0.076 C 11.242,3.212 9.674,7.188 5.697,7.188 C 1.721,7.188 0,3.518 0,0 M 14.684,0.19 C 14.684,-6.654 9.941,-9.637 5.467,-9.637 C 0.459,-9.637 -3.404,-5.966 -3.404,-0.115 C -3.404,6.08 0.648,9.712 5.773,9.712 C 11.088,9.712 14.684,5.851 14.684,0.19"
             id="path2610"
             style="fill:#c1c1c1;fill-opacity:1;fill-rule:nonzero;stroke:none" /></g><g
           transform="translate(7356.4922,8002.7876)"
           id="g2612"><path
             d="M 0,0 C 0.039,2.142 -0.879,5.468 -4.664,5.468 C -8.068,5.468 -9.559,2.333 -9.826,0 L 0,0 z M -9.865,-2.409 C -9.789,-6.959 -6.883,-8.833 -3.518,-8.833 C -1.107,-8.833 0.346,-8.412 1.607,-7.877 L 2.18,-10.286 C 0.994,-10.821 -1.031,-11.472 -3.977,-11.472 C -9.674,-11.472 -13.076,-7.686 -13.076,-2.103 C -13.076,3.479 -9.789,7.877 -4.396,7.877 C 1.645,7.877 3.252,2.563 3.252,-0.841 C 3.252,-1.529 3.174,-2.064 3.137,-2.409 L -9.865,-2.409 z"
             id="path2614"
             style="fill:#c1c1c1;fill-opacity:1;fill-rule:nonzero;stroke:none" /></g><g
           transform="translate(7367.2813,7995.1782)"
           id="g2616"><path
             d="M 0,0 C 0.994,-0.65 2.752,-1.338 4.436,-1.338 C 6.883,-1.338 8.029,-0.114 8.029,1.415 C 8.029,3.021 7.072,3.9 4.588,4.818 C 1.262,6.004 -0.307,7.839 -0.307,10.057 C -0.307,13.039 2.102,15.486 6.078,15.486 C 7.953,15.486 9.598,14.951 10.629,14.34 L 9.789,11.893 C 9.063,12.352 7.723,12.963 6.002,12.963 C 4.014,12.963 2.904,11.815 2.904,10.439 C 2.904,8.909 4.014,8.222 6.424,7.304 C 9.635,6.08 11.279,4.474 11.279,1.721 C 11.279,-1.529 8.756,-3.862 4.357,-3.862 C 2.332,-3.862 0.457,-3.327 -0.842,-2.562 L 0,0 z"
             id="path2618"
             style="fill:#c1c1c1;fill-opacity:1;fill-rule:nonzero;stroke:none" /></g><g
           transform="translate(7398.6406,8018.8862)"
           id="g2620"><path
             d="M 0,0 L 3.365,0 L 3.365,-11.548 L 3.441,-11.548 C 3.979,-10.592 4.818,-9.751 5.852,-9.178 C 6.846,-8.604 8.031,-8.222 9.293,-8.222 C 11.779,-8.222 15.756,-9.751 15.756,-16.137 L 15.756,-27.149 L 12.391,-27.149 L 12.391,-16.52 C 12.391,-13.536 11.281,-11.013 8.107,-11.013 C 5.928,-11.013 4.207,-12.542 3.596,-14.378 C 3.404,-14.837 3.365,-15.334 3.365,-15.983 L 3.365,-27.149 L 0,-27.149 L 0,0 z"
             id="path2622"
             style="fill:#c1c1c1;fill-opacity:1;fill-rule:nonzero;stroke:none" /></g><g
           transform="translate(7435.4316,8002.7876)"
           id="g2624"><path
             d="M 0,0 C 0.039,2.142 -0.879,5.468 -4.666,5.468 C -8.068,5.468 -9.561,2.333 -9.828,0 L 0,0 z M -9.865,-2.409 C -9.789,-6.959 -6.883,-8.833 -3.518,-8.833 C -1.109,-8.833 0.344,-8.412 1.605,-7.877 L 2.18,-10.286 C 0.994,-10.821 -1.033,-11.472 -3.977,-11.472 C -9.674,-11.472 -13.078,-7.686 -13.078,-2.103 C -13.078,3.479 -9.789,7.877 -4.398,7.877 C 1.645,7.877 3.25,2.563 3.25,-0.841 C 3.25,-1.529 3.174,-2.064 3.135,-2.409 L -9.865,-2.409 z"
             id="path2626"
             style="fill:#c1c1c1;fill-opacity:1;fill-rule:nonzero;stroke:none" /></g><g
           transform="translate(7446.6777,8004.4702)"
           id="g2628"><path
             d="M 0,0 C 0,2.18 -0.037,4.054 -0.152,5.774 L 2.793,5.774 L 2.906,2.142 L 3.061,2.142 C 3.9,4.627 5.928,6.194 8.184,6.194 C 8.566,6.194 8.834,6.156 9.141,6.08 L 9.141,2.906 C 8.795,2.982 8.451,3.021 7.992,3.021 C 5.621,3.021 3.939,1.224 3.48,-1.3 C 3.404,-1.759 3.328,-2.294 3.328,-2.868 L 3.328,-12.733 L 0,-12.733 L 0,0 z"
             id="path2630"
             style="fill:#c1c1c1;fill-opacity:1;fill-rule:nonzero;stroke:none" /></g><g
           transform="translate(7474.3652,8002.7876)"
           id="g2632"><path
             d="M 0,0 C 0.039,2.142 -0.879,5.468 -4.664,5.468 C -8.068,5.468 -9.559,2.333 -9.826,0 L 0,0 z M -9.865,-2.409 C -9.789,-6.959 -6.883,-8.833 -3.518,-8.833 C -1.107,-8.833 0.346,-8.412 1.607,-7.877 L 2.18,-10.286 C 0.994,-10.821 -1.031,-11.472 -3.977,-11.472 C -9.674,-11.472 -13.076,-7.686 -13.076,-2.103 C -13.076,3.479 -9.789,7.877 -4.396,7.877 C 1.645,7.877 3.252,2.563 3.252,-0.841 C 3.252,-1.529 3.174,-2.064 3.137,-2.409 L -9.865,-2.409 z"
             id="path2634"
             style="fill:#c1c1c1;fill-opacity:1;fill-rule:nonzero;stroke:none" /></g></g></g></g></svg>